HIERARCHY
ROOT Hips
{
    OFFSET 0.000000 0.000000 0.000000
    CHANNELS 6 Xposition Yposition Zposition Zrotation Xrotation Yrotation
    JOINT Spine
    {
        OFFSET -0.000000 7.925200 0.000000
        CHANNELS 3 Zrotation Xrotation Yrotation
        JOINT Spine1
        {
            OFFSET -0.000000 23.364719 0.000000
            CHANNELS 3 Zrotation Xrotation Yrotation
            JOINT Neck
            {
                OFFSET -0.000000 23.268766 2.115342
                CHANNELS 3 Zrotation Xrotation Yrotation
                JOINT Head
                {
                    OFFSET -0.000000 13.530829 -1.932976
                    CHANNELS 3 Zrotation Xrotation Yrotation
                    End Site
                    {
                        OFFSET -0.000000 24.162195 0.000000
                    }
                }
            }
            JOINT LeftShoulder
            {
                OFFSET 3.858291 22.792089 -0.033814
                CHANNELS 3 Zrotation Xrotation Yrotation
                JOINT LeftArm
                {
                    OFFSET 7.057024 0.000000 0.000000
                    CHANNELS 3 Zrotation Xrotation Yrotation
                    JOINT LeftForeArm
                    {
                        OFFSET 34.734173 0.000000 0.000000
                        CHANNELS 3 Zrotation Xrotation Yrotation
                        JOINT LeftHand
                        {
                            OFFSET 23.943203 0.000000 0.000000
                            CHANNELS 3 Zrotation Xrotation Yrotation
                            End Site
                            {
                                OFFSET 14.497317 0.000000 0.000000
                            }
                        }
                    }
                }
            }
            JOINT RightShoulder
            {
                OFFSET -3.868823 22.792089 -0.033814
                CHANNELS 3 Zrotation Xrotation Yrotation
                JOINT RightArm
                {
                    OFFSET -7.057024 0.000000 0.000000
                    CHANNELS 3 Zrotation Xrotation Yrotation
                    JOINT RightForeArm
                    {
                        OFFSET -34.734173 0.000000 0.000000
                        CHANNELS 3 Zrotation Xrotation Yrotation
                        JOINT RightHand
                        {
                            OFFSET -23.943203 0.000000 0.000000
                            CHANNELS 3 Zrotation Xrotation Yrotation
                            End Site
                            {
                                OFFSET -14.497317 0.000000 0.000000
                            }
                        }
                    }
                }
            }
        }
    }
    JOINT LeftUpLeg
    {
        OFFSET 9.664878 0.000000 0.000000
        CHANNELS 3 Zrotation Xrotation Yrotation
        JOINT LeftLeg
        {
            OFFSET -0.000000 -38.728706 0.000000
            CHANNELS 3 Zrotation Xrotation Yrotation
            JOINT LeftFoot
            {
                OFFSET -0.000000 -40.242161 0.000000
                CHANNELS 3 Zrotation Xrotation Yrotation
                JOINT LeftToeBase
                {
                    OFFSET -0.000000 -6.282171 14.497317
                    CHANNELS 3 Zrotation Xrotation Yrotation
                    End Site
                    {
                        OFFSET -0.000000 0.000000 3.865951
                    }
                }
            }
        }
    }
    JOINT RightUpLeg
    {
        OFFSET -9.664878 0.000000 0.000000
        CHANNELS 3 Zrotation Xrotation Yrotation
        JOINT RightLeg
        {
            OFFSET -0.000000 -38.728706 0.000000
            CHANNELS 3 Zrotation Xrotation Yrotation
            JOINT RightFoot
            {
                OFFSET -0.000000 -40.242161 0.000000
                CHANNELS 3 Zrotation Xrotation Yrotation
                JOINT RightToeBase
                {
                    OFFSET -0.000000 -6.282171 14.497317
                    CHANNELS 3 Zrotation Xrotation Yrotation
                    End Site
                    {
                        OFFSET -0.000000 0.000000 3.865951
                    }
                }
            }
        }
    }
}
MOTION
Frames:    13
Frame Time:    0.008333
31.509485    88.563881    28.400448    -2.621379    -1.956209    89.327271    1.020365    -3.542415    -0.426232    0.104715    2.499040    -0.460127    -4.094087    16.083324    6.863520    -0.395404    -2.210792    7.085528    13.562519    -1.138184    3.568531    -10.822093    12.583809    -4.637418    5.272995    -4.512631    -3.537640    -3.192235    -4.139702    -7.562949    -13.630608    0.370049    6.772394    12.219110    8.901257    5.245844    -1.232937    -1.519742    -1.667719    1.599547    -1.486046    3.700549    2.598362    2.310683    3.416298    -2.414671    -1.929946    -0.818937    1.192670    -4.409973    6.741645    0.000000    0.000000    0.000000    2.084084    -1.942145    0.554717    -1.777824    3.938533    0.505652    1.416452    -3.921112    -11.609251    0.000000    0.000000    0.000000    
31.513155    88.566376    28.405029    -2.613393    -1.956621    89.329811    1.032298    -3.517224    -0.433721    0.087011    2.444679    -0.467449    -4.110142    16.082983    6.864148    -0.380430    -2.164690    7.088798    13.574167    -1.140691    3.561522    -10.807936    12.552997    -4.635431    5.271934    -4.408030    -3.487670    -3.194531    -4.040023    -7.462947    -13.641292    0.384676    6.814604    12.200054    8.898816    5.249604    -1.232900    -1.511972    -1.639586    1.532348    -1.483560    3.443849    2.606604    2.326227    3.430895    -2.430005    -1.940117    -0.828870    1.204260    -4.401481    6.745467    0.000000    0.000000    0.000000    2.090765    -1.928790    0.527827    -1.785956    3.931300    0.530902    1.414878    -3.913680    -11.604907    0.000000    0.000000    0.000000    
31.518150    88.569069    28.407324    -2.600365    -1.957552    89.323318    1.054435    -3.501697    -0.436744    0.050976    2.424334    -0.470188    -4.174866    15.871469    6.797539    -0.229479    -1.821524    7.052939    13.619144    -1.158991    3.574863    -10.800422    12.536880    -4.659481    5.245107    -4.298651    -3.392154    -3.255878    -3.931374    -7.477207    -13.647729    0.374439    6.845602    12.178255    8.959799    5.276020    -1.313400    -1.310135    -1.723432    1.995015    -1.266654    3.633219    2.603790    2.342608    3.456538    -2.420631    -1.939485    -0.856975    1.185887    -4.397175    6.756311    0.000000    0.000000    0.000000    2.092893    -1.910391    0.542297    -1.785440    3.930125    0.522233    1.413420    -3.914289    -11.607099    0.000000    0.000000    0.000000    
31.523964    88.571640    28.410646    -2.587906    -1.956028    89.325523    1.044111    -3.498238    -0.433950    0.062445    2.424397    -0.467172    -4.135387    15.871151    6.783400    -0.294905    -1.811491    7.027815    13.651536    -1.177540    3.553398    -10.811587    12.525233    -4.656555    5.237315    -4.200829    -3.317273    -3.288792    -3.834336    -7.501017    -13.658195    0.361231    6.846280    12.143445    8.933600    5.255102    -1.296778    -1.205086    -1.657918    1.941885    -1.164112    3.523233    2.605819    2.359095    3.469881    -2.419300    -1.933030    -0.889630    1.175228    -4.400009    6.766108    0.000000    0.000000    0.000000    2.092129    -1.891364    0.555940    -1.779826    3.925250    0.509811    1.421656    -3.910293    -11.616345    0.000000    0.000000    0.000000    
31.527937    88.575050    28.411575    -2.582201    -1.955768    89.320183    1.060477    -3.503738    -0.435287    0.037283    2.440809    -0.468604    -4.131556    15.801325    6.780241    -0.292336    -1.725300    7.027884    13.693365    -1.202376    3.573926    -10.802812    12.545321    -4.678789    5.203291    -4.156405    -3.236140    -3.326072    -3.792121    -7.501292    -13.677756    0.325641    6.851903    12.126648    8.921801    5.274667    -1.297198    -1.096215    -1.672472    1.820597    -1.059584    3.495726    2.603935    2.373261    3.480264    -2.414535    -1.943651    -0.896605    1.173449    -4.389942    6.766965    0.000000    0.000000    0.000000    2.128504    -1.931605    0.515698    -1.850731    4.007311    0.474822    1.464205    -3.923147    -11.530733    0.000000    0.000000    0.000000    
31.540239    88.583817    28.421518    -2.554895    -2.003486    89.336250    1.097341    -3.487609    -0.435983    0.048631    2.436378    -0.470441    -4.121150    15.780266    6.764135    -0.298150    -1.673318    7.011148    13.731952    -1.185225    3.549582    -10.813069    12.522051    -4.689501    5.178924    -4.111778    -3.166080    -3.338342    -3.751169    -7.478841    -13.691615    0.339355    6.840970    12.092642    8.915804    5.298070    -1.266510    -1.095079    -1.680499    1.483433    -1.070460    3.336259    2.662490    2.410323    3.486592    -2.421376    -1.953441    -0.905940    1.162284    -4.379753    6.750140    0.000000    0.000000    0.000000    2.188162    -1.882431    0.539649    -1.855625    3.984272    0.448371    1.469488    -3.873312    -11.552491    0.000000    0.000000    0.000000    
31.544611    88.584991    28.423763    -2.544926    -2.003653    89.337296    1.102844    -3.478837    -0.437461    0.034292    2.425753    -0.471701    -4.071311    15.772079    6.756234    -0.357999    -1.637480    6.993789    13.775331    -1.196509    3.541138    -10.821169    12.558698    -4.684627    5.167835    -4.098572    -3.112173    -3.359321    -3.739906    -7.459304    -13.691550    0.317282    6.870601    12.068390    8.952011    5.288782    -1.303152    -1.065019    -1.708647    1.544075    -1.039304    3.352160    2.664467    2.426643    3.490192    -2.424577    -1.958492    -0.905036    1.142143    -4.378564    6.753035    0.000000    0.000000    0.000000    2.194256    -1.870448    0.546591    -1.863959    3.987359    0.445529    1.467702    -3.868768    -11.555006    0.000000    0.000000    0.000000    
31.547365    88.587242    28.425539    -2.536500    -2.003602    89.333527    1.096605    -3.460098    -0.428811    0.046800    2.394852    -0.462934    -4.085571    15.779862    6.746342    -0.338166    -1.624032    6.986388    13.798257    -1.191382    3.514162    -10.825928    12.557059    -4.683521    5.180588    -4.097735    -3.061152    -3.619880    -3.722725    -7.500558    -13.696585    0.306379    6.865170    12.031220    8.955020    5.302752    -1.309394    -0.998172    -1.759034    1.616869    -0.969392    3.463852    2.663678    2.440094    3.519222    -2.424619    -1.964756    -0.928604    1.143267    -4.371973    6.753357    0.000000    0.000000    0.000000    2.193053    -1.867004    0.556833    -1.856913    4.002175    0.451313    1.476022    -3.874653    -11.571704    0.000000    0.000000    0.000000    
31.549164    88.588837    28.425343    -2.535571    -1.999742    89.337219    1.105258    -3.459198    -0.430145    0.030549    2.387654    -0.464223    -4.096427    15.753187    6.737364    -0.311873    -1.578396    6.982371    13.822317    -1.191331    3.512395    -10.817029    12.550493    -4.683292    5.165417    -4.095439    -3.022799    -3.663165    -3.719387    -7.511748    -13.707336    0.305888    6.871598    12.005363    8.961647    5.310824    -1.327725    -1.015494    -1.768978    1.697610    -0.983888    3.520911    2.653613    2.437717    3.543419    -2.409631    -1.954552    -0.965114    1.125509    -4.371299    6.758414    0.000000    0.000000    0.000000    2.194973    -1.865788    0.537177    -1.867052    3.999262    0.431762    1.479578    -3.864655    -11.542896    0.000000    0.000000    0.000000    
31.553680    88.584557    28.420008    -2.521552    -1.967286    89.339371    1.087482    -3.436618    -0.437186    0.016753    2.357412    -0.470210    -4.115956    15.767764    6.743921    -0.294556    -1.568693    6.991421    13.824791    -1.182400    3.513039    -10.797199    12.503360    -4.679299    5.135936    -4.064219    -2.969824    -3.547295    -3.698624    -7.520500    -13.721172    0.312432    6.916764    11.992910    8.937614    5.294734    -1.322838    -1.097050    -1.765025    1.621739    -1.067929    3.494499    2.609279    2.457172    3.573390    -2.396836    -1.960733    -0.986058    1.118128    -4.363178    6.747751    0.000000    0.000000    0.000000    2.149489    -1.856760    0.538407    -1.847941    4.019063    0.449075    1.449014    -3.902708    -11.557846    0.000000    0.000000    0.000000    
31.560146    88.586685    28.420794    -2.511261    -1.967697    89.352699    1.093818    -3.439404    -0.440806    0.006426    2.372848    -0.473792    -3.990324    15.953310    6.818091    -0.519800    -1.859986    7.024686    13.852730    -1.197552    3.525071    -10.786400    12.476580    -4.698736    5.121038    -4.050916    -2.925394    -3.606817    -3.681967    -7.578070    -13.722937    0.289093    6.907826    11.960121    8.919910    5.303375    -1.299673    -1.183126    -1.748423    1.596283    -1.154394    3.484537    2.606690    2.465147    3.589686    -2.389562    -1.949137    -1.029348    1.116233    -4.365004    6.760520    0.000000    0.000000    0.000000    2.148208    -1.841559    0.537659    -1.846250    4.020705    0.485362    1.432710    -3.904150    -11.603161    0.000000    0.000000    0.000000    
31.565130    88.587906    28.421354    -2.500152    -1.967559    89.361778    1.110460    -3.427320    -0.443718    -0.023386    2.360905    -0.476509    -4.054573    15.737473    6.735888    -0.350304    -1.511530    6.975490    13.888610    -1.200185    3.514301    -10.784667    12.473965    -4.686683    5.118414    -4.029150    -2.902026    -3.648918    -3.659011    -7.562468    -13.719957    0.269590    6.934306    11.941345    8.930055    5.278471    -1.370540    -1.223809    -1.710606    1.976930    -1.183741    3.507661    2.601997    2.477885    3.639741    -2.382651    -1.947757    -1.071856    1.100470    -4.362710    6.746532    0.000000    0.000000    0.000000    2.154681    -1.830090    0.520294    -1.859684    4.024851    0.458770    1.448282    -3.901811    -11.567952    0.000000    0.000000    0.000000    
31.570621    88.589081    28.421843    -2.487273    -1.966769    89.370857    1.103861    -3.397395    -0.443485    -0.007942    2.314643    -0.476126    -3.996416    15.968184    6.801925    -0.492616    -1.818516    7.011795    13.885607    -1.195152    3.486915    -10.773602    12.459061    -4.672200    5.114503    -3.966655    -2.868040    -3.625056    -3.599164    -7.578858    -13.738294    0.277019    6.950420    11.933770    8.918914    5.261901    -1.376505    -1.286784    -1.691391    2.048658    -1.244053    3.526641    2.602820    2.495059    3.678293    -2.381418    -1.949180    -1.133606    1.101738    -4.356712    6.751688    0.000000    0.000000    0.000000    2.151625    -1.812990    0.507589    -1.853770    4.028545    0.481623    1.447602    -3.907642    -11.587149    0.000000    0.000000    0.000000    
